<mxfile host="Electron" agent="Mozilla/5.0 (Windows NT 10.0; Win64; x64) AppleWebKit/537.36 (KHTML, like Gecko) draw.io/27.0.9 Chrome/134.0.6998.205 Electron/35.4.0 Safari/537.36" version="27.0.9" pages="6">
  <diagram name="CU000-Sistema de Gestión de Tickets" id="82fp2I_lohVElclzp7qq">
    <mxGraphModel dx="983" dy="586" grid="1" gridSize="10" guides="1" tooltips="1" connect="1" arrows="1" fold="1" page="1" pageScale="1" pageWidth="827" pageHeight="1169" math="0" shadow="0">
      <root>
        <mxCell id="0" />
        <mxCell id="1" parent="0" />
        <mxCell id="XZV5v0Cb8ypzLQx-NPKO-1" value="" style="rounded=0;whiteSpace=wrap;html=1;fillColor=default;" parent="1" vertex="1">
          <mxGeometry x="400" y="320" width="460" height="620" as="geometry" />
        </mxCell>
        <mxCell id="XZV5v0Cb8ypzLQx-NPKO-2" value="Ingresar al sistema" style="ellipse;whiteSpace=wrap;html=1;" parent="1" vertex="1">
          <mxGeometry x="359" y="630" width="140" height="70" as="geometry" />
        </mxCell>
        <mxCell id="XZV5v0Cb8ypzLQx-NPKO-5" value="Manejar Tickets" style="ellipse;whiteSpace=wrap;html=1;" parent="1" vertex="1">
          <mxGeometry x="582" y="520" width="140" height="70" as="geometry" />
        </mxCell>
        <mxCell id="XZV5v0Cb8ypzLQx-NPKO-7" value="Ver usuarios" style="ellipse;whiteSpace=wrap;html=1;" parent="1" vertex="1">
          <mxGeometry x="582" y="630" width="140" height="70" as="geometry" />
        </mxCell>
        <mxCell id="XZV5v0Cb8ypzLQx-NPKO-8" value="Ver clientes" style="ellipse;whiteSpace=wrap;html=1;" parent="1" vertex="1">
          <mxGeometry x="582" y="740" width="140" height="70" as="geometry" />
        </mxCell>
        <mxCell id="XZV5v0Cb8ypzLQx-NPKO-9" value="Ver categorías" style="ellipse;whiteSpace=wrap;html=1;" parent="1" vertex="1">
          <mxGeometry x="582" y="840" width="140" height="70" as="geometry" />
        </mxCell>
        <mxCell id="XZV5v0Cb8ypzLQx-NPKO-14" value="&lt;font style=&quot;font-size: 15px;&quot;&gt;Sistema de Gestión de Tickets&lt;/font&gt;" style="text;html=1;align=center;verticalAlign=middle;whiteSpace=wrap;rounded=0;fontFamily=Courier New;fontSize=25;" parent="1" vertex="1">
          <mxGeometry x="350" y="270" width="586" height="30" as="geometry" />
        </mxCell>
        <mxCell id="XZV5v0Cb8ypzLQx-NPKO-15" value="Técnico" style="shape=umlActor;verticalLabelPosition=bottom;verticalAlign=top;html=1;outlineConnect=0;" parent="1" vertex="1">
          <mxGeometry x="240" y="550" width="30" height="60" as="geometry" />
        </mxCell>
        <mxCell id="XZV5v0Cb8ypzLQx-NPKO-16" value="Administrador" style="shape=umlActor;verticalLabelPosition=bottom;verticalAlign=top;html=1;outlineConnect=0;" parent="1" vertex="1">
          <mxGeometry x="916" y="535" width="30" height="60" as="geometry" />
        </mxCell>
        <mxCell id="XZV5v0Cb8ypzLQx-NPKO-19" value="&amp;lt;&amp;lt;include&amp;gt;&amp;gt;" style="html=1;verticalAlign=bottom;labelBackgroundColor=none;endArrow=open;endFill=0;dashed=1;rounded=0;exitX=0;exitY=0.5;exitDx=0;exitDy=0;entryX=1;entryY=0.5;entryDx=0;entryDy=0;edgeStyle=elbowEdgeStyle;" parent="1" source="XZV5v0Cb8ypzLQx-NPKO-5" target="XZV5v0Cb8ypzLQx-NPKO-2" edge="1">
          <mxGeometry x="-0.9137" width="160" relative="1" as="geometry">
            <mxPoint x="622" y="310" as="sourcePoint" />
            <mxPoint x="539" y="760" as="targetPoint" />
            <mxPoint as="offset" />
          </mxGeometry>
        </mxCell>
        <mxCell id="XZV5v0Cb8ypzLQx-NPKO-21" value="&amp;lt;&amp;lt;include&amp;gt;&amp;gt;" style="html=1;verticalAlign=bottom;labelBackgroundColor=none;endArrow=open;endFill=0;dashed=1;rounded=0;exitX=0;exitY=0.5;exitDx=0;exitDy=0;entryX=1;entryY=0.5;entryDx=0;entryDy=0;edgeStyle=elbowEdgeStyle;" parent="1" source="XZV5v0Cb8ypzLQx-NPKO-7" target="XZV5v0Cb8ypzLQx-NPKO-2" edge="1">
          <mxGeometry x="-0.9137" width="160" relative="1" as="geometry">
            <mxPoint x="562" y="880" as="sourcePoint" />
            <mxPoint x="479" y="1330" as="targetPoint" />
            <mxPoint as="offset" />
          </mxGeometry>
        </mxCell>
        <mxCell id="XZV5v0Cb8ypzLQx-NPKO-22" value="&amp;lt;&amp;lt;include&amp;gt;&amp;gt;" style="html=1;verticalAlign=bottom;labelBackgroundColor=none;endArrow=open;endFill=0;dashed=1;rounded=0;exitX=0;exitY=0.5;exitDx=0;exitDy=0;entryX=1;entryY=0.5;entryDx=0;entryDy=0;edgeStyle=elbowEdgeStyle;" parent="1" source="XZV5v0Cb8ypzLQx-NPKO-8" target="XZV5v0Cb8ypzLQx-NPKO-2" edge="1">
          <mxGeometry x="-0.9137" width="160" relative="1" as="geometry">
            <mxPoint x="522" y="960" as="sourcePoint" />
            <mxPoint x="439" y="1410" as="targetPoint" />
            <mxPoint as="offset" />
          </mxGeometry>
        </mxCell>
        <mxCell id="XZV5v0Cb8ypzLQx-NPKO-23" value="&amp;lt;&amp;lt;include&amp;gt;&amp;gt;" style="html=1;verticalAlign=bottom;labelBackgroundColor=none;endArrow=open;endFill=0;dashed=1;rounded=0;exitX=0;exitY=0.5;exitDx=0;exitDy=0;edgeStyle=elbowEdgeStyle;entryX=1;entryY=0.5;entryDx=0;entryDy=0;" parent="1" source="XZV5v0Cb8ypzLQx-NPKO-9" target="XZV5v0Cb8ypzLQx-NPKO-2" edge="1">
          <mxGeometry x="-0.9137" width="160" relative="1" as="geometry">
            <mxPoint x="572" y="930" as="sourcePoint" />
            <mxPoint x="499" y="710" as="targetPoint" />
            <mxPoint as="offset" />
          </mxGeometry>
        </mxCell>
        <mxCell id="XZV5v0Cb8ypzLQx-NPKO-29" value="" style="endArrow=none;html=1;rounded=0;entryX=0.5;entryY=0;entryDx=0;entryDy=0;exitX=1;exitY=0.3333333333333333;exitDx=0;exitDy=0;exitPerimeter=0;" parent="1" edge="1">
          <mxGeometry width="50" height="50" relative="1" as="geometry">
            <mxPoint x="270" y="572" as="sourcePoint" />
            <mxPoint x="652" y="522" as="targetPoint" />
            <Array as="points">
              <mxPoint x="460" y="530" />
            </Array>
          </mxGeometry>
        </mxCell>
        <mxCell id="XZV5v0Cb8ypzLQx-NPKO-31" value="" style="endArrow=none;html=1;rounded=0;entryX=0.5;entryY=1;entryDx=0;entryDy=0;exitX=1;exitY=0.3333333333333333;exitDx=0;exitDy=0;exitPerimeter=0;" parent="1" source="XZV5v0Cb8ypzLQx-NPKO-15" target="XZV5v0Cb8ypzLQx-NPKO-8" edge="1">
          <mxGeometry width="50" height="50" relative="1" as="geometry">
            <mxPoint x="259" y="760" as="sourcePoint" />
            <mxPoint x="309" y="710" as="targetPoint" />
            <Array as="points">
              <mxPoint x="449" y="830" />
            </Array>
          </mxGeometry>
        </mxCell>
        <mxCell id="XZV5v0Cb8ypzLQx-NPKO-32" value="" style="endArrow=none;html=1;rounded=0;entryX=0.5;entryY=1;entryDx=0;entryDy=0;exitX=1;exitY=0.3333333333333333;exitDx=0;exitDy=0;exitPerimeter=0;" parent="1" source="XZV5v0Cb8ypzLQx-NPKO-15" target="XZV5v0Cb8ypzLQx-NPKO-9" edge="1">
          <mxGeometry width="50" height="50" relative="1" as="geometry">
            <mxPoint x="259" y="780" as="sourcePoint" />
            <mxPoint x="309" y="730" as="targetPoint" />
            <Array as="points">
              <mxPoint x="449" y="890" />
            </Array>
          </mxGeometry>
        </mxCell>
        <mxCell id="XZV5v0Cb8ypzLQx-NPKO-37" value="" style="endArrow=none;html=1;rounded=0;entryX=1;entryY=0.3333333333333333;entryDx=0;entryDy=0;entryPerimeter=0;exitX=0;exitY=0;exitDx=0;exitDy=0;" parent="1" source="XZV5v0Cb8ypzLQx-NPKO-2" target="XZV5v0Cb8ypzLQx-NPKO-15" edge="1">
          <mxGeometry width="50" height="50" relative="1" as="geometry">
            <mxPoint x="109" y="750" as="sourcePoint" />
            <mxPoint x="159" y="700" as="targetPoint" />
          </mxGeometry>
        </mxCell>
        <mxCell id="XZV5v0Cb8ypzLQx-NPKO-40" value="" style="endArrow=none;html=1;rounded=0;entryX=1;entryY=0.5;entryDx=0;entryDy=0;exitX=0;exitY=0.3333333333333333;exitDx=0;exitDy=0;exitPerimeter=0;edgeStyle=elbowEdgeStyle;" parent="1" source="XZV5v0Cb8ypzLQx-NPKO-16" target="XZV5v0Cb8ypzLQx-NPKO-5" edge="1">
          <mxGeometry width="50" height="50" relative="1" as="geometry">
            <mxPoint x="879" y="390" as="sourcePoint" />
            <mxPoint x="929" y="340" as="targetPoint" />
            <Array as="points">
              <mxPoint x="790" y="550" />
            </Array>
          </mxGeometry>
        </mxCell>
        <mxCell id="XZV5v0Cb8ypzLQx-NPKO-42" value="" style="endArrow=none;html=1;rounded=0;entryX=0;entryY=0.3333333333333333;entryDx=0;entryDy=0;entryPerimeter=0;exitX=1;exitY=0.5;exitDx=0;exitDy=0;edgeStyle=elbowEdgeStyle;" parent="1" source="XZV5v0Cb8ypzLQx-NPKO-7" target="XZV5v0Cb8ypzLQx-NPKO-16" edge="1">
          <mxGeometry width="50" height="50" relative="1" as="geometry">
            <mxPoint x="829" y="650" as="sourcePoint" />
            <mxPoint x="879" y="600" as="targetPoint" />
            <Array as="points">
              <mxPoint x="859" y="620" />
            </Array>
          </mxGeometry>
        </mxCell>
        <mxCell id="XZV5v0Cb8ypzLQx-NPKO-43" value="" style="endArrow=none;html=1;rounded=0;entryX=0;entryY=0.3333333333333333;entryDx=0;entryDy=0;entryPerimeter=0;exitX=1;exitY=1;exitDx=0;exitDy=0;" parent="1" source="XZV5v0Cb8ypzLQx-NPKO-2" target="XZV5v0Cb8ypzLQx-NPKO-16" edge="1">
          <mxGeometry width="50" height="50" relative="1" as="geometry">
            <mxPoint x="849" y="750" as="sourcePoint" />
            <mxPoint x="899" y="700" as="targetPoint" />
            <Array as="points">
              <mxPoint x="839" y="730" />
            </Array>
          </mxGeometry>
        </mxCell>
        <mxCell id="XZV5v0Cb8ypzLQx-NPKO-44" value="" style="endArrow=none;html=1;rounded=0;entryX=0;entryY=1;entryDx=0;entryDy=0;entryPerimeter=0;exitX=1;exitY=0.5;exitDx=0;exitDy=0;edgeStyle=elbowEdgeStyle;" parent="1" source="XZV5v0Cb8ypzLQx-NPKO-8" target="XZV5v0Cb8ypzLQx-NPKO-16" edge="1">
          <mxGeometry width="50" height="50" relative="1" as="geometry">
            <mxPoint x="869" y="790" as="sourcePoint" />
            <mxPoint x="919" y="740" as="targetPoint" />
            <Array as="points">
              <mxPoint x="859" y="690" />
            </Array>
          </mxGeometry>
        </mxCell>
        <mxCell id="XZV5v0Cb8ypzLQx-NPKO-45" value="" style="endArrow=none;html=1;rounded=0;entryX=0;entryY=1;entryDx=0;entryDy=0;entryPerimeter=0;exitX=1;exitY=0.5;exitDx=0;exitDy=0;edgeStyle=elbowEdgeStyle;" parent="1" source="XZV5v0Cb8ypzLQx-NPKO-9" target="XZV5v0Cb8ypzLQx-NPKO-16" edge="1">
          <mxGeometry width="50" height="50" relative="1" as="geometry">
            <mxPoint x="849" y="925" as="sourcePoint" />
            <mxPoint x="1026" y="760" as="targetPoint" />
            <Array as="points">
              <mxPoint x="859" y="770" />
            </Array>
          </mxGeometry>
        </mxCell>
        <mxCell id="XZV5v0Cb8ypzLQx-NPKO-53" value="" style="edgeStyle=orthogonalEdgeStyle;rounded=0;orthogonalLoop=1;jettySize=auto;html=1;endArrow=none;endFill=0;" parent="1" source="XZV5v0Cb8ypzLQx-NPKO-51" target="XZV5v0Cb8ypzLQx-NPKO-2" edge="1">
          <mxGeometry relative="1" as="geometry" />
        </mxCell>
        <mxCell id="XZV5v0Cb8ypzLQx-NPKO-51" value="Cliente" style="shape=umlActor;verticalLabelPosition=bottom;verticalAlign=top;html=1;outlineConnect=0;" parent="1" vertex="1">
          <mxGeometry x="260" y="420" width="30" height="60" as="geometry" />
        </mxCell>
        <mxCell id="XZV5v0Cb8ypzLQx-NPKO-55" value="Ver tickets" style="ellipse;whiteSpace=wrap;html=1;" parent="1" vertex="1">
          <mxGeometry x="690" y="350" width="120" height="80" as="geometry" />
        </mxCell>
        <mxCell id="XZV5v0Cb8ypzLQx-NPKO-56" value="&amp;lt;&amp;lt;extend&amp;gt;&amp;gt;" style="html=1;verticalAlign=bottom;labelBackgroundColor=none;endArrow=open;endFill=0;dashed=1;rounded=0;exitX=0;exitY=1;exitDx=0;exitDy=0;entryX=0.5;entryY=0;entryDx=0;entryDy=0;" parent="1" source="XZV5v0Cb8ypzLQx-NPKO-55" target="XZV5v0Cb8ypzLQx-NPKO-5" edge="1">
          <mxGeometry width="160" relative="1" as="geometry">
            <mxPoint x="530" y="630" as="sourcePoint" />
            <mxPoint x="690" y="630" as="targetPoint" />
          </mxGeometry>
        </mxCell>
        <mxCell id="XZV5v0Cb8ypzLQx-NPKO-57" value="" style="endArrow=none;html=1;rounded=0;entryX=0;entryY=0.5;entryDx=0;entryDy=0;edgeStyle=orthogonalEdgeStyle;" parent="1" source="XZV5v0Cb8ypzLQx-NPKO-51" target="XZV5v0Cb8ypzLQx-NPKO-55" edge="1">
          <mxGeometry width="50" height="50" relative="1" as="geometry">
            <mxPoint x="370" y="410" as="sourcePoint" />
            <mxPoint x="420" y="360" as="targetPoint" />
          </mxGeometry>
        </mxCell>
      </root>
    </mxGraphModel>
  </diagram>
  <diagram id="wAccvBEf3aEaAmW6dzby" name="CU001-Login">
    <mxGraphModel dx="983" dy="886" grid="1" gridSize="10" guides="1" tooltips="1" connect="1" arrows="1" fold="1" page="1" pageScale="1" pageWidth="400" pageHeight="300" math="0" shadow="0">
      <root>
        <mxCell id="0" />
        <mxCell id="1" parent="0" />
        <mxCell id="K8wJ6orTpIWEnVnjXy0q-1" value="" style="rounded=0;whiteSpace=wrap;html=1;" vertex="1" parent="1">
          <mxGeometry x="234" y="-210" width="360" height="345" as="geometry" />
        </mxCell>
        <mxCell id="K8wJ6orTpIWEnVnjXy0q-2" value="Administrador" style="shape=umlActor;verticalLabelPosition=bottom;verticalAlign=top;html=1;" vertex="1" parent="1">
          <mxGeometry x="124" y="3" width="30" height="60" as="geometry" />
        </mxCell>
        <mxCell id="K8wJ6orTpIWEnVnjXy0q-3" value="" style="endArrow=none;html=1;rounded=0;entryX=0;entryY=0.5;entryDx=0;entryDy=0;exitX=0.75;exitY=0.1;exitDx=0;exitDy=0;exitPerimeter=0;" edge="1" parent="1" source="K8wJ6orTpIWEnVnjXy0q-2" target="K8wJ6orTpIWEnVnjXy0q-6">
          <mxGeometry width="50" height="50" relative="1" as="geometry">
            <mxPoint x="228" y="2" as="sourcePoint" />
            <mxPoint x="1018" y="-28" as="targetPoint" />
          </mxGeometry>
        </mxCell>
        <mxCell id="K8wJ6orTpIWEnVnjXy0q-4" value="Ingresar usuario y contraseñas válidas" style="ellipse;whiteSpace=wrap;html=1;" vertex="1" parent="1">
          <mxGeometry x="278" y="-149" width="140" height="70" as="geometry" />
        </mxCell>
        <mxCell id="K8wJ6orTpIWEnVnjXy0q-5" value="&amp;lt;&amp;lt;include&amp;gt;&amp;gt;" style="html=1;verticalAlign=bottom;labelBackgroundColor=none;endArrow=open;endFill=0;dashed=1;rounded=0;exitX=0.5;exitY=0;exitDx=0;exitDy=0;entryX=0.5;entryY=1;entryDx=0;entryDy=0;edgeStyle=orthogonalEdgeStyle;" edge="1" parent="1" source="K8wJ6orTpIWEnVnjXy0q-6" target="K8wJ6orTpIWEnVnjXy0q-4">
          <mxGeometry width="160" relative="1" as="geometry">
            <mxPoint x="507" y="214" as="sourcePoint" />
            <mxPoint x="442" y="154" as="targetPoint" />
          </mxGeometry>
        </mxCell>
        <mxCell id="K8wJ6orTpIWEnVnjXy0q-6" value="Ingresar al sistema" style="ellipse;whiteSpace=wrap;html=1;" vertex="1" parent="1">
          <mxGeometry x="377" y="-16" width="130" height="46" as="geometry" />
        </mxCell>
        <mxCell id="K8wJ6orTpIWEnVnjXy0q-7" value="Técnico" style="shape=umlActor;verticalLabelPosition=bottom;verticalAlign=top;html=1;" vertex="1" parent="1">
          <mxGeometry x="674" y="-16" width="30" height="60" as="geometry" />
        </mxCell>
        <mxCell id="K8wJ6orTpIWEnVnjXy0q-8" value="" style="endArrow=none;html=1;rounded=0;entryX=1;entryY=0.5;entryDx=0;entryDy=0;exitX=0;exitY=0.3333333333333333;exitDx=0;exitDy=0;exitPerimeter=0;" edge="1" parent="1" source="K8wJ6orTpIWEnVnjXy0q-7" target="K8wJ6orTpIWEnVnjXy0q-6">
          <mxGeometry width="50" height="50" relative="1" as="geometry">
            <mxPoint x="458" y="259" as="sourcePoint" />
            <mxPoint x="607" y="264" as="targetPoint" />
          </mxGeometry>
        </mxCell>
        <mxCell id="K8wJ6orTpIWEnVnjXy0q-9" value="&lt;font style=&quot;font-size: 15px;&quot;&gt;Login&lt;/font&gt;" style="text;html=1;align=center;verticalAlign=middle;whiteSpace=wrap;rounded=0;fontFamily=Courier New;fontSize=25;" vertex="1" parent="1">
          <mxGeometry x="374" y="-280" width="80" height="30" as="geometry" />
        </mxCell>
        <mxCell id="K8wJ6orTpIWEnVnjXy0q-10" value="Cliente" style="shape=umlActor;verticalLabelPosition=bottom;verticalAlign=top;html=1;" vertex="1" parent="1">
          <mxGeometry x="418" y="160" width="30" height="60" as="geometry" />
        </mxCell>
        <mxCell id="K8wJ6orTpIWEnVnjXy0q-12" value="" style="endArrow=none;html=1;rounded=0;entryX=0.5;entryY=1;entryDx=0;entryDy=0;" edge="1" parent="1" target="K8wJ6orTpIWEnVnjXy0q-6">
          <mxGeometry width="50" height="50" relative="1" as="geometry">
            <mxPoint x="430" y="160" as="sourcePoint" />
            <mxPoint x="480" y="110" as="targetPoint" />
          </mxGeometry>
        </mxCell>
      </root>
    </mxGraphModel>
  </diagram>
  <diagram id="6M5jHVai0kF-XRiGV2_C" name="CU002-Ver usuarios">
    <mxGraphModel dx="983" dy="586" grid="1" gridSize="10" guides="1" tooltips="1" connect="1" arrows="1" fold="1" page="1" pageScale="1" pageWidth="400" pageHeight="300" math="0" shadow="0">
      <root>
        <mxCell id="0" />
        <mxCell id="1" parent="0" />
        <mxCell id="ZOgcwmMAZk1Js_5u0pwl-1" value="" style="rounded=0;whiteSpace=wrap;html=1;" vertex="1" parent="1">
          <mxGeometry x="280" y="250" width="480" height="380" as="geometry" />
        </mxCell>
        <mxCell id="ZOgcwmMAZk1Js_5u0pwl-2" value="" style="group" vertex="1" connectable="0" parent="1">
          <mxGeometry x="200" y="280" width="520" height="320" as="geometry" />
        </mxCell>
        <mxCell id="ZOgcwmMAZk1Js_5u0pwl-3" value="Seleccionar usuarios" style="ellipse;whiteSpace=wrap;html=1;" vertex="1" parent="ZOgcwmMAZk1Js_5u0pwl-2">
          <mxGeometry x="420" y="248.88888888888889" width="110" height="71.11111111111111" as="geometry" />
        </mxCell>
        <mxCell id="ZOgcwmMAZk1Js_5u0pwl-4" value="&amp;lt;&amp;lt;extend&amp;gt;&amp;gt;" style="html=1;verticalAlign=bottom;labelBackgroundColor=none;endArrow=open;endFill=0;dashed=1;rounded=0;exitX=0;exitY=0.5;exitDx=0;exitDy=0;entryX=1;entryY=0.5;entryDx=0;entryDy=0;" edge="1" parent="ZOgcwmMAZk1Js_5u0pwl-2" source="ZOgcwmMAZk1Js_5u0pwl-3" target="ZOgcwmMAZk1Js_5u0pwl-5">
          <mxGeometry width="160" relative="1" as="geometry">
            <mxPoint x="600" y="-11.851851851851851" as="sourcePoint" />
            <mxPoint x="330" y="130.37037037037035" as="targetPoint" />
          </mxGeometry>
        </mxCell>
        <mxCell id="ZOgcwmMAZk1Js_5u0pwl-5" value="Ver usuarios" style="ellipse;whiteSpace=wrap;html=1;" vertex="1" parent="ZOgcwmMAZk1Js_5u0pwl-2">
          <mxGeometry x="138" y="119.99666666666667" width="190" height="59.25925925925925" as="geometry" />
        </mxCell>
        <mxCell id="ZOgcwmMAZk1Js_5u0pwl-6" value="Actualizar información de usuarios" style="ellipse;whiteSpace=wrap;html=1;" vertex="1" parent="ZOgcwmMAZk1Js_5u0pwl-2">
          <mxGeometry x="420" y="154.07407407407408" width="110" height="71.11111111111111" as="geometry" />
        </mxCell>
        <mxCell id="ZOgcwmMAZk1Js_5u0pwl-7" value="Agregar usuarios" style="ellipse;whiteSpace=wrap;html=1;" vertex="1" parent="ZOgcwmMAZk1Js_5u0pwl-2">
          <mxGeometry x="420" y="59.25925925925925" width="110" height="71.11111111111111" as="geometry" />
        </mxCell>
        <mxCell id="ZOgcwmMAZk1Js_5u0pwl-8" value="&amp;lt;&amp;lt;extend&amp;gt;&amp;gt;" style="html=1;verticalAlign=bottom;labelBackgroundColor=none;endArrow=open;endFill=0;dashed=1;rounded=0;entryX=1;entryY=0.5;entryDx=0;entryDy=0;exitX=0;exitY=0.5;exitDx=0;exitDy=0;" edge="1" parent="ZOgcwmMAZk1Js_5u0pwl-2" source="ZOgcwmMAZk1Js_5u0pwl-6" target="ZOgcwmMAZk1Js_5u0pwl-5">
          <mxGeometry width="160" relative="1" as="geometry">
            <mxPoint x="600" y="59.25925925925925" as="sourcePoint" />
            <mxPoint x="270" y="154.07407407407408" as="targetPoint" />
          </mxGeometry>
        </mxCell>
        <mxCell id="ZOgcwmMAZk1Js_5u0pwl-9" value="&amp;lt;&amp;lt;extend&amp;gt;&amp;gt;" style="html=1;verticalAlign=bottom;labelBackgroundColor=none;endArrow=open;endFill=0;dashed=1;rounded=0;entryX=1;entryY=0.5;entryDx=0;entryDy=0;exitX=0;exitY=0.5;exitDx=0;exitDy=0;" edge="1" parent="ZOgcwmMAZk1Js_5u0pwl-2" source="ZOgcwmMAZk1Js_5u0pwl-7" target="ZOgcwmMAZk1Js_5u0pwl-5">
          <mxGeometry width="160" relative="1" as="geometry">
            <mxPoint x="530" y="35.55555555555556" as="sourcePoint" />
            <mxPoint x="480" y="130.37037037037035" as="targetPoint" />
          </mxGeometry>
        </mxCell>
        <mxCell id="ZOgcwmMAZk1Js_5u0pwl-10" value="Eliminar usuarios" style="ellipse;whiteSpace=wrap;html=1;" vertex="1" parent="ZOgcwmMAZk1Js_5u0pwl-2">
          <mxGeometry x="420" y="-20" width="110" height="60" as="geometry" />
        </mxCell>
        <mxCell id="ZOgcwmMAZk1Js_5u0pwl-11" value="&amp;lt;&amp;lt;extend&amp;gt;&amp;gt;" style="html=1;verticalAlign=bottom;labelBackgroundColor=none;endArrow=open;endFill=0;dashed=1;rounded=0;exitX=0;exitY=0.5;exitDx=0;exitDy=0;entryX=1;entryY=0.5;entryDx=0;entryDy=0;" edge="1" parent="ZOgcwmMAZk1Js_5u0pwl-2" source="ZOgcwmMAZk1Js_5u0pwl-10" target="ZOgcwmMAZk1Js_5u0pwl-5">
          <mxGeometry x="0.0022" width="160" relative="1" as="geometry">
            <mxPoint x="470" y="190" as="sourcePoint" />
            <mxPoint x="420" y="250" as="targetPoint" />
            <mxPoint as="offset" />
          </mxGeometry>
        </mxCell>
        <mxCell id="ZOgcwmMAZk1Js_5u0pwl-12" value="Administrador" style="shape=umlActor;verticalLabelPosition=bottom;verticalAlign=top;html=1;outlineConnect=0;" vertex="1" parent="1">
          <mxGeometry x="90" y="410" width="30" height="60" as="geometry" />
        </mxCell>
        <mxCell id="ZOgcwmMAZk1Js_5u0pwl-13" value="" style="endArrow=none;html=1;rounded=0;entryX=0;entryY=0.5;entryDx=0;entryDy=0;exitX=1;exitY=0.3333333333333333;exitDx=0;exitDy=0;exitPerimeter=0;" edge="1" parent="1" source="ZOgcwmMAZk1Js_5u0pwl-12" target="ZOgcwmMAZk1Js_5u0pwl-5">
          <mxGeometry width="50" height="50" relative="1" as="geometry">
            <mxPoint x="210" y="540" as="sourcePoint" />
            <mxPoint x="260" y="490" as="targetPoint" />
          </mxGeometry>
        </mxCell>
        <mxCell id="ZOgcwmMAZk1Js_5u0pwl-14" value="&lt;span style=&quot;font-size: 15px;&quot;&gt;Ver usuarios&lt;/span&gt;" style="text;html=1;align=center;verticalAlign=middle;whiteSpace=wrap;rounded=0;fontFamily=Courier New;fontSize=25;" vertex="1" parent="1">
          <mxGeometry x="290" y="190" width="360" height="40" as="geometry" />
        </mxCell>
      </root>
    </mxGraphModel>
  </diagram>
  <diagram id="Rh4dg3I63A72imadVmm0" name="CU003-Ticket">
    <mxGraphModel dx="983" dy="586" grid="1" gridSize="10" guides="1" tooltips="1" connect="1" arrows="1" fold="1" page="1" pageScale="1" pageWidth="400" pageHeight="300" math="0" shadow="0">
      <root>
        <mxCell id="0" />
        <mxCell id="1" parent="0" />
        <mxCell id="Z-BAgXQe0WvpCtrMIwsQ-19" value="" style="rounded=0;whiteSpace=wrap;html=1;" vertex="1" parent="1">
          <mxGeometry x="410" y="200" width="570" height="480" as="geometry" />
        </mxCell>
        <mxCell id="Z-BAgXQe0WvpCtrMIwsQ-20" value="" style="group" vertex="1" connectable="0" parent="1">
          <mxGeometry x="430" y="190" width="530" height="540" as="geometry" />
        </mxCell>
        <mxCell id="Z-BAgXQe0WvpCtrMIwsQ-21" value="Ver ticket" style="ellipse;whiteSpace=wrap;html=1;" vertex="1" parent="Z-BAgXQe0WvpCtrMIwsQ-20">
          <mxGeometry y="230" width="170" height="60" as="geometry" />
        </mxCell>
        <mxCell id="Z-BAgXQe0WvpCtrMIwsQ-22" value="Actualizar tickets" style="ellipse;whiteSpace=wrap;html=1;" vertex="1" parent="Z-BAgXQe0WvpCtrMIwsQ-20">
          <mxGeometry x="400" y="250" width="120" height="80" as="geometry" />
        </mxCell>
        <mxCell id="Z-BAgXQe0WvpCtrMIwsQ-23" value="&lt;div&gt;Eliminar tickets&lt;/div&gt;" style="ellipse;whiteSpace=wrap;html=1;" vertex="1" parent="Z-BAgXQe0WvpCtrMIwsQ-20">
          <mxGeometry x="400" y="350" width="120" height="80" as="geometry" />
        </mxCell>
        <mxCell id="Z-BAgXQe0WvpCtrMIwsQ-24" value="&amp;lt;&amp;lt;extend&amp;gt;&amp;gt;" style="html=1;verticalAlign=bottom;labelBackgroundColor=none;endArrow=open;endFill=0;dashed=1;rounded=0;exitX=0;exitY=0.5;exitDx=0;exitDy=0;entryX=1;entryY=0.5;entryDx=0;entryDy=0;" edge="1" parent="Z-BAgXQe0WvpCtrMIwsQ-20" source="Z-BAgXQe0WvpCtrMIwsQ-22" target="Z-BAgXQe0WvpCtrMIwsQ-21">
          <mxGeometry width="160" relative="1" as="geometry">
            <mxPoint x="400" y="330" as="sourcePoint" />
            <mxPoint x="210.0000000000009" y="445" as="targetPoint" />
          </mxGeometry>
        </mxCell>
        <mxCell id="Z-BAgXQe0WvpCtrMIwsQ-25" value="&amp;lt;&amp;lt;extend&amp;gt;&amp;gt;" style="html=1;verticalAlign=bottom;labelBackgroundColor=none;endArrow=open;endFill=0;dashed=1;rounded=0;exitX=0;exitY=0.5;exitDx=0;exitDy=0;entryX=1;entryY=0.5;entryDx=0;entryDy=0;" edge="1" parent="Z-BAgXQe0WvpCtrMIwsQ-20" source="Z-BAgXQe0WvpCtrMIwsQ-23" target="Z-BAgXQe0WvpCtrMIwsQ-21">
          <mxGeometry width="160" relative="1" as="geometry">
            <mxPoint x="420" y="460" as="sourcePoint" />
            <mxPoint x="210.0000000000009" y="445" as="targetPoint" />
          </mxGeometry>
        </mxCell>
        <mxCell id="Z-BAgXQe0WvpCtrMIwsQ-28" value="Crear tickets" style="ellipse;whiteSpace=wrap;html=1;" vertex="1" parent="Z-BAgXQe0WvpCtrMIwsQ-20">
          <mxGeometry x="405" y="160" width="110" height="60" as="geometry" />
        </mxCell>
        <mxCell id="Z-BAgXQe0WvpCtrMIwsQ-31" value="&amp;lt;&amp;lt;extend&amp;gt;&amp;gt;" style="html=1;verticalAlign=bottom;labelBackgroundColor=none;endArrow=open;endFill=0;dashed=1;rounded=0;exitX=0;exitY=0.5;exitDx=0;exitDy=0;entryX=1;entryY=0.5;entryDx=0;entryDy=0;" edge="1" parent="Z-BAgXQe0WvpCtrMIwsQ-20" source="Z-BAgXQe0WvpCtrMIwsQ-28" target="Z-BAgXQe0WvpCtrMIwsQ-21">
          <mxGeometry width="160" relative="1" as="geometry">
            <mxPoint x="415" y="140" as="sourcePoint" />
            <mxPoint x="320" y="110" as="targetPoint" />
          </mxGeometry>
        </mxCell>
        <mxCell id="Z-BAgXQe0WvpCtrMIwsQ-33" value="" style="endArrow=none;html=1;rounded=0;exitX=0;exitY=0.5;exitDx=0;exitDy=0;entryX=1;entryY=0.3333333333333333;entryDx=0;entryDy=0;entryPerimeter=0;" edge="1" parent="1" source="Z-BAgXQe0WvpCtrMIwsQ-21" target="Z-BAgXQe0WvpCtrMIwsQ-38">
          <mxGeometry width="50" height="50" relative="1" as="geometry">
            <mxPoint x="435" y="491" as="sourcePoint" />
            <mxPoint x="370" y="490" as="targetPoint" />
          </mxGeometry>
        </mxCell>
        <mxCell id="Z-BAgXQe0WvpCtrMIwsQ-34" value="&lt;span style=&quot;font-size: 15px;&quot;&gt;Tickets&lt;/span&gt;" style="text;html=1;align=center;verticalAlign=middle;whiteSpace=wrap;rounded=0;fontFamily=Courier New;fontSize=25;" vertex="1" parent="1">
          <mxGeometry x="515" y="140" width="360" height="40" as="geometry" />
        </mxCell>
        <mxCell id="Z-BAgXQe0WvpCtrMIwsQ-35" value="Administrador" style="shape=umlActor;verticalLabelPosition=bottom;verticalAlign=top;html=1;" vertex="1" parent="1">
          <mxGeometry x="190" y="552" width="30" height="60" as="geometry" />
        </mxCell>
        <mxCell id="Z-BAgXQe0WvpCtrMIwsQ-36" style="edgeStyle=orthogonalEdgeStyle;rounded=0;orthogonalLoop=1;jettySize=auto;html=1;entryX=0;entryY=0.3333333333333333;entryDx=0;entryDy=0;entryPerimeter=0;" edge="1" parent="1" source="Z-BAgXQe0WvpCtrMIwsQ-37" target="Z-BAgXQe0WvpCtrMIwsQ-38">
          <mxGeometry relative="1" as="geometry" />
        </mxCell>
        <mxCell id="Z-BAgXQe0WvpCtrMIwsQ-37" value="Técnico" style="shape=umlActor;verticalLabelPosition=bottom;verticalAlign=top;html=1;outlineConnect=0;" vertex="1" parent="1">
          <mxGeometry x="190" y="388" width="30" height="60" as="geometry" />
        </mxCell>
        <mxCell id="Z-BAgXQe0WvpCtrMIwsQ-38" value="Usuario" style="shape=umlActor;verticalLabelPosition=bottom;verticalAlign=top;html=1;outlineConnect=0;" vertex="1" parent="1">
          <mxGeometry x="330" y="468" width="30" height="60" as="geometry" />
        </mxCell>
        <mxCell id="Z-BAgXQe0WvpCtrMIwsQ-39" style="edgeStyle=orthogonalEdgeStyle;rounded=0;orthogonalLoop=1;jettySize=auto;html=1;entryX=0;entryY=0.3333333333333333;entryDx=0;entryDy=0;entryPerimeter=0;" edge="1" parent="1" source="Z-BAgXQe0WvpCtrMIwsQ-35" target="Z-BAgXQe0WvpCtrMIwsQ-38">
          <mxGeometry relative="1" as="geometry" />
        </mxCell>
        <mxCell id="Ohs5pdQh5HaYnsWVdSxO-1" value="Cliente" style="shape=umlActor;verticalLabelPosition=bottom;verticalAlign=top;html=1;outlineConnect=0;" vertex="1" parent="1">
          <mxGeometry x="110" y="460" width="30" height="60" as="geometry" />
        </mxCell>
        <mxCell id="Ohs5pdQh5HaYnsWVdSxO-2" value="" style="endArrow=none;html=1;rounded=0;" edge="1" parent="1">
          <mxGeometry width="50" height="50" relative="1" as="geometry">
            <mxPoint x="140" y="488" as="sourcePoint" />
            <mxPoint x="320" y="488" as="targetPoint" />
          </mxGeometry>
        </mxCell>
        <mxCell id="4CuIYI063-wJTnjyb0X7-1" value="&lt;h1 style=&quot;margin-top: 0px;&quot;&gt;Aclaración&lt;/h1&gt;&lt;p&gt;El cliente solo puede ver los tickets que le pertenecen&lt;/p&gt;" style="text;html=1;whiteSpace=wrap;overflow=hidden;rounded=0;" vertex="1" parent="1">
          <mxGeometry x="470" y="750" width="180" height="120" as="geometry" />
        </mxCell>
      </root>
    </mxGraphModel>
  </diagram>
  <diagram id="7m0JwcH9CsRBHKBKuEk6" name="CU004-Clientes">
    <mxGraphModel dx="983" dy="586" grid="1" gridSize="10" guides="1" tooltips="1" connect="1" arrows="1" fold="1" page="1" pageScale="1" pageWidth="400" pageHeight="300" math="0" shadow="0">
      <root>
        <mxCell id="0" />
        <mxCell id="1" parent="0" />
        <mxCell id="Hk9vXwJuJLlMJmOyenRw-1" value="" style="rounded=0;whiteSpace=wrap;html=1;" vertex="1" parent="1">
          <mxGeometry x="379" y="140" width="480" height="380" as="geometry" />
        </mxCell>
        <mxCell id="Hk9vXwJuJLlMJmOyenRw-2" value="" style="group" vertex="1" connectable="0" parent="1">
          <mxGeometry x="299" y="170" width="520" height="320" as="geometry" />
        </mxCell>
        <mxCell id="Hk9vXwJuJLlMJmOyenRw-3" value="Seleccionar clientes" style="ellipse;whiteSpace=wrap;html=1;" vertex="1" parent="Hk9vXwJuJLlMJmOyenRw-2">
          <mxGeometry x="420" y="248.88888888888889" width="110" height="71.11111111111111" as="geometry" />
        </mxCell>
        <mxCell id="Hk9vXwJuJLlMJmOyenRw-4" value="&amp;lt;&amp;lt;extend&amp;gt;&amp;gt;" style="html=1;verticalAlign=bottom;labelBackgroundColor=none;endArrow=open;endFill=0;dashed=1;rounded=0;exitX=0;exitY=0.5;exitDx=0;exitDy=0;entryX=1;entryY=0.5;entryDx=0;entryDy=0;" edge="1" parent="Hk9vXwJuJLlMJmOyenRw-2" source="Hk9vXwJuJLlMJmOyenRw-3" target="Hk9vXwJuJLlMJmOyenRw-5">
          <mxGeometry width="160" relative="1" as="geometry">
            <mxPoint x="600" y="-11.851851851851851" as="sourcePoint" />
            <mxPoint x="330" y="130.37037037037035" as="targetPoint" />
          </mxGeometry>
        </mxCell>
        <mxCell id="Hk9vXwJuJLlMJmOyenRw-5" value="Ver clientes" style="ellipse;whiteSpace=wrap;html=1;" vertex="1" parent="Hk9vXwJuJLlMJmOyenRw-2">
          <mxGeometry x="138" y="119.99666666666667" width="190" height="59.25925925925925" as="geometry" />
        </mxCell>
        <mxCell id="Hk9vXwJuJLlMJmOyenRw-6" value="Actualizar información de clientes" style="ellipse;whiteSpace=wrap;html=1;" vertex="1" parent="Hk9vXwJuJLlMJmOyenRw-2">
          <mxGeometry x="420" y="154.07407407407408" width="110" height="71.11111111111111" as="geometry" />
        </mxCell>
        <mxCell id="Hk9vXwJuJLlMJmOyenRw-7" value="Agregar clientes" style="ellipse;whiteSpace=wrap;html=1;" vertex="1" parent="Hk9vXwJuJLlMJmOyenRw-2">
          <mxGeometry x="420" y="59.25925925925925" width="110" height="71.11111111111111" as="geometry" />
        </mxCell>
        <mxCell id="Hk9vXwJuJLlMJmOyenRw-8" value="&amp;lt;&amp;lt;extend&amp;gt;&amp;gt;" style="html=1;verticalAlign=bottom;labelBackgroundColor=none;endArrow=open;endFill=0;dashed=1;rounded=0;entryX=1;entryY=0.5;entryDx=0;entryDy=0;exitX=0;exitY=0.5;exitDx=0;exitDy=0;" edge="1" parent="Hk9vXwJuJLlMJmOyenRw-2" source="Hk9vXwJuJLlMJmOyenRw-6" target="Hk9vXwJuJLlMJmOyenRw-5">
          <mxGeometry width="160" relative="1" as="geometry">
            <mxPoint x="600" y="59.25925925925925" as="sourcePoint" />
            <mxPoint x="270" y="154.07407407407408" as="targetPoint" />
          </mxGeometry>
        </mxCell>
        <mxCell id="Hk9vXwJuJLlMJmOyenRw-9" value="&amp;lt;&amp;lt;extend&amp;gt;&amp;gt;" style="html=1;verticalAlign=bottom;labelBackgroundColor=none;endArrow=open;endFill=0;dashed=1;rounded=0;entryX=1;entryY=0.5;entryDx=0;entryDy=0;exitX=0;exitY=0.5;exitDx=0;exitDy=0;" edge="1" parent="Hk9vXwJuJLlMJmOyenRw-2" source="Hk9vXwJuJLlMJmOyenRw-7" target="Hk9vXwJuJLlMJmOyenRw-5">
          <mxGeometry width="160" relative="1" as="geometry">
            <mxPoint x="530" y="35.55555555555556" as="sourcePoint" />
            <mxPoint x="480" y="130.37037037037035" as="targetPoint" />
          </mxGeometry>
        </mxCell>
        <mxCell id="Hk9vXwJuJLlMJmOyenRw-10" value="Eliminar clientes" style="ellipse;whiteSpace=wrap;html=1;" vertex="1" parent="Hk9vXwJuJLlMJmOyenRw-2">
          <mxGeometry x="420" y="-20" width="110" height="60" as="geometry" />
        </mxCell>
        <mxCell id="Hk9vXwJuJLlMJmOyenRw-11" value="&amp;lt;&amp;lt;extend&amp;gt;&amp;gt;" style="html=1;verticalAlign=bottom;labelBackgroundColor=none;endArrow=open;endFill=0;dashed=1;rounded=0;exitX=0;exitY=0.5;exitDx=0;exitDy=0;entryX=1;entryY=0.5;entryDx=0;entryDy=0;" edge="1" parent="Hk9vXwJuJLlMJmOyenRw-2" source="Hk9vXwJuJLlMJmOyenRw-10" target="Hk9vXwJuJLlMJmOyenRw-5">
          <mxGeometry x="0.0022" width="160" relative="1" as="geometry">
            <mxPoint x="470" y="190" as="sourcePoint" />
            <mxPoint x="420" y="250" as="targetPoint" />
            <mxPoint as="offset" />
          </mxGeometry>
        </mxCell>
        <mxCell id="Hk9vXwJuJLlMJmOyenRw-12" value="" style="endArrow=none;html=1;rounded=0;entryX=0;entryY=0.5;entryDx=0;entryDy=0;exitX=1;exitY=0.3333333333333333;exitDx=0;exitDy=0;exitPerimeter=0;" edge="1" parent="1" source="Hk9vXwJuJLlMJmOyenRw-17" target="Hk9vXwJuJLlMJmOyenRw-5">
          <mxGeometry width="50" height="50" relative="1" as="geometry">
            <mxPoint x="360" y="350" as="sourcePoint" />
            <mxPoint x="359" y="380" as="targetPoint" />
          </mxGeometry>
        </mxCell>
        <mxCell id="Hk9vXwJuJLlMJmOyenRw-13" value="&lt;span style=&quot;font-size: 15px;&quot;&gt;Ver clientes&lt;/span&gt;" style="text;html=1;align=center;verticalAlign=middle;whiteSpace=wrap;rounded=0;fontFamily=Courier New;fontSize=25;" vertex="1" parent="1">
          <mxGeometry x="389" y="80" width="360" height="40" as="geometry" />
        </mxCell>
        <mxCell id="Hk9vXwJuJLlMJmOyenRw-14" value="Administrador" style="shape=umlActor;verticalLabelPosition=bottom;verticalAlign=top;html=1;" vertex="1" parent="1">
          <mxGeometry x="150" y="374" width="30" height="60" as="geometry" />
        </mxCell>
        <mxCell id="Hk9vXwJuJLlMJmOyenRw-15" style="edgeStyle=orthogonalEdgeStyle;rounded=0;orthogonalLoop=1;jettySize=auto;html=1;entryX=0;entryY=0.3333333333333333;entryDx=0;entryDy=0;entryPerimeter=0;" edge="1" parent="1" source="Hk9vXwJuJLlMJmOyenRw-16" target="Hk9vXwJuJLlMJmOyenRw-17">
          <mxGeometry relative="1" as="geometry" />
        </mxCell>
        <mxCell id="Hk9vXwJuJLlMJmOyenRw-16" value="Técnico&lt;div&gt;&lt;br&gt;&lt;/div&gt;" style="shape=umlActor;verticalLabelPosition=bottom;verticalAlign=top;html=1;outlineConnect=0;" vertex="1" parent="1">
          <mxGeometry x="150" y="210" width="30" height="60" as="geometry" />
        </mxCell>
        <mxCell id="Hk9vXwJuJLlMJmOyenRw-17" value="Usuario" style="shape=umlActor;verticalLabelPosition=bottom;verticalAlign=top;html=1;outlineConnect=0;" vertex="1" parent="1">
          <mxGeometry x="290" y="290" width="30" height="60" as="geometry" />
        </mxCell>
        <mxCell id="Hk9vXwJuJLlMJmOyenRw-18" style="edgeStyle=orthogonalEdgeStyle;rounded=0;orthogonalLoop=1;jettySize=auto;html=1;entryX=0;entryY=0.3333333333333333;entryDx=0;entryDy=0;entryPerimeter=0;" edge="1" parent="1" source="Hk9vXwJuJLlMJmOyenRw-14" target="Hk9vXwJuJLlMJmOyenRw-17">
          <mxGeometry relative="1" as="geometry" />
        </mxCell>
      </root>
    </mxGraphModel>
  </diagram>
  <diagram id="Qx2NpCFKrqa4E_7pLiJk" name="CU005-Categorias">
    <mxGraphModel dx="983" dy="586" grid="1" gridSize="10" guides="1" tooltips="1" connect="1" arrows="1" fold="1" page="1" pageScale="1" pageWidth="400" pageHeight="300" math="0" shadow="0">
      <root>
        <mxCell id="0" />
        <mxCell id="1" parent="0" />
        <mxCell id="OQK-2wy9s3Er8C7BaqOC-1" value="" style="rounded=0;whiteSpace=wrap;html=1;" vertex="1" parent="1">
          <mxGeometry x="443" y="290" width="480" height="380" as="geometry" />
        </mxCell>
        <mxCell id="OQK-2wy9s3Er8C7BaqOC-2" value="" style="group" vertex="1" connectable="0" parent="1">
          <mxGeometry x="363" y="320" width="520" height="320" as="geometry" />
        </mxCell>
        <mxCell id="OQK-2wy9s3Er8C7BaqOC-3" value="Seleccionar categorías" style="ellipse;whiteSpace=wrap;html=1;" vertex="1" parent="OQK-2wy9s3Er8C7BaqOC-2">
          <mxGeometry x="420" y="248.88888888888889" width="110" height="71.11111111111111" as="geometry" />
        </mxCell>
        <mxCell id="OQK-2wy9s3Er8C7BaqOC-4" value="&amp;lt;&amp;lt;extend&amp;gt;&amp;gt;" style="html=1;verticalAlign=bottom;labelBackgroundColor=none;endArrow=open;endFill=0;dashed=1;rounded=0;exitX=0;exitY=0.5;exitDx=0;exitDy=0;entryX=1;entryY=0.5;entryDx=0;entryDy=0;" edge="1" parent="OQK-2wy9s3Er8C7BaqOC-2" source="OQK-2wy9s3Er8C7BaqOC-3" target="OQK-2wy9s3Er8C7BaqOC-5">
          <mxGeometry width="160" relative="1" as="geometry">
            <mxPoint x="600" y="-11.851851851851851" as="sourcePoint" />
            <mxPoint x="330" y="130.37037037037035" as="targetPoint" />
          </mxGeometry>
        </mxCell>
        <mxCell id="OQK-2wy9s3Er8C7BaqOC-5" value="Ver categorías" style="ellipse;whiteSpace=wrap;html=1;" vertex="1" parent="OQK-2wy9s3Er8C7BaqOC-2">
          <mxGeometry x="138" y="119.99666666666667" width="190" height="59.25925925925925" as="geometry" />
        </mxCell>
        <mxCell id="OQK-2wy9s3Er8C7BaqOC-6" value="Actualizar información de categorías" style="ellipse;whiteSpace=wrap;html=1;" vertex="1" parent="OQK-2wy9s3Er8C7BaqOC-2">
          <mxGeometry x="420" y="154.07407407407408" width="110" height="71.11111111111111" as="geometry" />
        </mxCell>
        <mxCell id="OQK-2wy9s3Er8C7BaqOC-7" value="Agregar categorías" style="ellipse;whiteSpace=wrap;html=1;" vertex="1" parent="OQK-2wy9s3Er8C7BaqOC-2">
          <mxGeometry x="420" y="59.25925925925925" width="110" height="71.11111111111111" as="geometry" />
        </mxCell>
        <mxCell id="OQK-2wy9s3Er8C7BaqOC-8" value="&amp;lt;&amp;lt;extend&amp;gt;&amp;gt;" style="html=1;verticalAlign=bottom;labelBackgroundColor=none;endArrow=open;endFill=0;dashed=1;rounded=0;entryX=1;entryY=0.5;entryDx=0;entryDy=0;exitX=0;exitY=0.5;exitDx=0;exitDy=0;" edge="1" parent="OQK-2wy9s3Er8C7BaqOC-2" source="OQK-2wy9s3Er8C7BaqOC-6" target="OQK-2wy9s3Er8C7BaqOC-5">
          <mxGeometry width="160" relative="1" as="geometry">
            <mxPoint x="600" y="59.25925925925925" as="sourcePoint" />
            <mxPoint x="270" y="154.07407407407408" as="targetPoint" />
          </mxGeometry>
        </mxCell>
        <mxCell id="OQK-2wy9s3Er8C7BaqOC-9" value="&amp;lt;&amp;lt;extend&amp;gt;&amp;gt;" style="html=1;verticalAlign=bottom;labelBackgroundColor=none;endArrow=open;endFill=0;dashed=1;rounded=0;entryX=1;entryY=0.5;entryDx=0;entryDy=0;exitX=0;exitY=0.5;exitDx=0;exitDy=0;" edge="1" parent="OQK-2wy9s3Er8C7BaqOC-2" source="OQK-2wy9s3Er8C7BaqOC-7" target="OQK-2wy9s3Er8C7BaqOC-5">
          <mxGeometry width="160" relative="1" as="geometry">
            <mxPoint x="530" y="35.55555555555556" as="sourcePoint" />
            <mxPoint x="480" y="130.37037037037035" as="targetPoint" />
          </mxGeometry>
        </mxCell>
        <mxCell id="OQK-2wy9s3Er8C7BaqOC-10" value="Eliminar categorías" style="ellipse;whiteSpace=wrap;html=1;" vertex="1" parent="OQK-2wy9s3Er8C7BaqOC-2">
          <mxGeometry x="420" y="-20" width="110" height="60" as="geometry" />
        </mxCell>
        <mxCell id="OQK-2wy9s3Er8C7BaqOC-11" value="&amp;lt;&amp;lt;extend&amp;gt;&amp;gt;" style="html=1;verticalAlign=bottom;labelBackgroundColor=none;endArrow=open;endFill=0;dashed=1;rounded=0;exitX=0;exitY=0.5;exitDx=0;exitDy=0;entryX=1;entryY=0.5;entryDx=0;entryDy=0;" edge="1" parent="OQK-2wy9s3Er8C7BaqOC-2" source="OQK-2wy9s3Er8C7BaqOC-10" target="OQK-2wy9s3Er8C7BaqOC-5">
          <mxGeometry x="0.0022" width="160" relative="1" as="geometry">
            <mxPoint x="470" y="190" as="sourcePoint" />
            <mxPoint x="420" y="250" as="targetPoint" />
            <mxPoint as="offset" />
          </mxGeometry>
        </mxCell>
        <mxCell id="OQK-2wy9s3Er8C7BaqOC-12" value="" style="endArrow=none;html=1;rounded=0;entryX=0;entryY=0.5;entryDx=0;entryDy=0;exitX=1;exitY=0.3333333333333333;exitDx=0;exitDy=0;exitPerimeter=0;" edge="1" parent="1" source="OQK-2wy9s3Er8C7BaqOC-17" target="OQK-2wy9s3Er8C7BaqOC-5">
          <mxGeometry width="50" height="50" relative="1" as="geometry">
            <mxPoint x="410" y="483" as="sourcePoint" />
            <mxPoint x="423" y="530" as="targetPoint" />
          </mxGeometry>
        </mxCell>
        <mxCell id="OQK-2wy9s3Er8C7BaqOC-13" value="&lt;span style=&quot;font-size: 15px;&quot;&gt;Ver categorías&lt;/span&gt;" style="text;html=1;align=center;verticalAlign=middle;whiteSpace=wrap;rounded=0;fontFamily=Courier New;fontSize=25;" vertex="1" parent="1">
          <mxGeometry x="453" y="230" width="360" height="40" as="geometry" />
        </mxCell>
        <mxCell id="OQK-2wy9s3Er8C7BaqOC-14" value="Administrador" style="shape=umlActor;verticalLabelPosition=bottom;verticalAlign=top;html=1;" vertex="1" parent="1">
          <mxGeometry x="240" y="532" width="30" height="60" as="geometry" />
        </mxCell>
        <mxCell id="OQK-2wy9s3Er8C7BaqOC-15" style="edgeStyle=orthogonalEdgeStyle;rounded=0;orthogonalLoop=1;jettySize=auto;html=1;entryX=0;entryY=0.3333333333333333;entryDx=0;entryDy=0;entryPerimeter=0;" edge="1" parent="1" source="OQK-2wy9s3Er8C7BaqOC-16" target="OQK-2wy9s3Er8C7BaqOC-17">
          <mxGeometry relative="1" as="geometry" />
        </mxCell>
        <mxCell id="OQK-2wy9s3Er8C7BaqOC-16" value="Técnico" style="shape=umlActor;verticalLabelPosition=bottom;verticalAlign=top;html=1;outlineConnect=0;" vertex="1" parent="1">
          <mxGeometry x="240" y="368" width="30" height="60" as="geometry" />
        </mxCell>
        <mxCell id="OQK-2wy9s3Er8C7BaqOC-17" value="Usuario" style="shape=umlActor;verticalLabelPosition=bottom;verticalAlign=top;html=1;outlineConnect=0;" vertex="1" parent="1">
          <mxGeometry x="380" y="448" width="30" height="60" as="geometry" />
        </mxCell>
        <mxCell id="OQK-2wy9s3Er8C7BaqOC-18" style="edgeStyle=orthogonalEdgeStyle;rounded=0;orthogonalLoop=1;jettySize=auto;html=1;entryX=0;entryY=0.3333333333333333;entryDx=0;entryDy=0;entryPerimeter=0;" edge="1" parent="1" source="OQK-2wy9s3Er8C7BaqOC-14" target="OQK-2wy9s3Er8C7BaqOC-17">
          <mxGeometry relative="1" as="geometry" />
        </mxCell>
      </root>
    </mxGraphModel>
  </diagram>
</mxfile>
